# xmcd
#
# Track frame offsets: 
#        150
#        14732
#        32884
#        53243
#        65553
#        82289
#        97245
#        120677
#        143016
#        162565
#        174160
#        193237
#        216940
#        237952
#        256711
#        279037
#        304827
#        333796
#
# Disc length: 4636 seconds
#
# Revision: 0
# Processed by: cddbd v1.5.1PL2 Copyright (c) Steve Scherf et al.
# Submitted via: ExactAudioCopy v0.95b3
#
DISCID=09121a12
DTITLE=Boudewijn De Groot - Een avond in Brussel
DYEAR=2005
DGENRE=National Folk
TTITLE0=Eeuwige jeugd
TTITLE1=Het einddoel
TTITLE2=Telkens weer
TTITLE3=Als je niet meer verder kunt
TTITLE4=Wegen
TTITLE5=Matroos Havenloos
TTITLE6=De vondeling van Ameland
TTITLE7=Laat het water open
TTITLE8=Leonardo
TTITLE9=Een fietstocht
TTITLE10=De winter
TTITLE11=Nergens heen
TTITLE12=De zwembadpas
TTITLE13=Als de rook om je hoofd is verdwenen
TTITLE14=Avond
TTITLE15=De laatste vrouw
TTITLE16=De Engel is gekomen
TTITLE17=Onderweg
EXTD=
EXTT0=
EXTT1=
EXTT2=
EXTT3=
EXTT4=
EXTT5=
EXTT6=
EXTT7=
EXTT8=
EXTT9=
EXTT10=
EXTT11=
EXTT12=
EXTT13=
EXTT14=
EXTT15=
EXTT16=
EXTT17=
PLAYORDER=
